HIERARCHY
ROOT Hips
{
	OFFSET 0.00000 0.00000 0.00000
	CHANNELS 6 Xposition Yposition Zposition Zrotation Yrotation Xrotation 
	JOINT LHipJoint
	{
		OFFSET 0 0 0
		CHANNELS 3 Zrotation Yrotation Xrotation
		JOINT LeftUpLeg
		{
			OFFSET 1.57338 -1.94743 0.52196
			CHANNELS 3 Zrotation Yrotation Xrotation
			JOINT LeftLeg
			{
				OFFSET 2.60333 -7.15259 0.00000
				CHANNELS 3 Zrotation Yrotation Xrotation
				JOINT LeftFoot
				{
					OFFSET 2.77855 -7.63400 0.00000
					CHANNELS 3 Zrotation Yrotation Xrotation
					JOINT LeftToeBase
					{
						OFFSET 0.19847 -0.54529 2.28466
						CHANNELS 3 Zrotation Yrotation Xrotation
						End Site
						{
							OFFSET 0.00000 -0.00000 1.17993
						}
					}
				}
			}
		}
	}
	JOINT RHipJoint
	{
		OFFSET 0 0 0
		CHANNELS 3 Zrotation Yrotation Xrotation
		JOINT RightUpLeg
		{
			OFFSET -1.61527 -1.94743 0.52196
			CHANNELS 3 Zrotation Yrotation Xrotation
			JOINT RightLeg
			{
				OFFSET -2.53829 -6.97390 0.00000
				CHANNELS 3 Zrotation Yrotation Xrotation
				JOINT RightFoot
				{
					OFFSET -2.80762 -7.71387 0.00000
					CHANNELS 3 Zrotation Yrotation Xrotation
					JOINT RightToeBase
					{
						OFFSET -0.30536 -0.83898 2.28801
						CHANNELS 3 Zrotation Yrotation Xrotation
						End Site
						{
							OFFSET -0.00000 -0.00000 1.21323
						}
					}
				}
			}
		}
	}
	JOINT LowerBack
	{
		OFFSET 0 0 0
		CHANNELS 3 Zrotation Yrotation Xrotation
		JOINT Spine
		{
			OFFSET -0.04381 1.99497 -0.19778
			CHANNELS 3 Zrotation Yrotation Xrotation
			JOINT Spine1
			{
				OFFSET -0.01959 2.01295 -0.04372
				CHANNELS 3 Zrotation Yrotation Xrotation
				JOINT Neck
				{
					OFFSET 0 0 0
					CHANNELS 3 Zrotation Yrotation Xrotation
					JOINT Neck1
					{
						OFFSET -0.05459 1.76913 0.09708
						CHANNELS 3 Zrotation Yrotation Xrotation
						JOINT Head
						{
							OFFSET 0.09461 1.77368 -0.11172
							CHANNELS 3 Zrotation Yrotation Xrotation
							End Site
							{
								OFFSET 0.03812 1.78157 -0.04834
							}
						}
					}
				}
				JOINT LeftShoulder
				{
					OFFSET 0 0 0
					CHANNELS 3 Zrotation Yrotation Xrotation
					JOINT LeftArm
					{
						OFFSET 3.50922 1.24034 -0.28866
						CHANNELS 3 Zrotation Yrotation Xrotation
						JOINT LeftForeArm
						{
							OFFSET 5.40188 -0.00000 0.00000
							CHANNELS 3 Zrotation Yrotation Xrotation
							JOINT LeftHand
							{
								OFFSET 3.68559 -0.00000 0.00000
								CHANNELS 3 Zrotation Yrotation Xrotation
								JOINT LeftFingerBase
								{
									OFFSET 0 0 0
									CHANNELS 3 Zrotation Yrotation Xrotation
									JOINT LeftHandIndex1
									{
										OFFSET 0.61753 -0.00000 0.00000
										CHANNELS 3 Zrotation Yrotation Xrotation
										End Site
										{
											OFFSET 0.49787 -0.00000 0.00000
										}
									}
								}
								JOINT LThumb
								{
									OFFSET 0 0 0
									CHANNELS 3 Zrotation Yrotation Xrotation
									End Site
									{
										OFFSET 0.50547 -0.00000 0.50547
									}
								}
							}
						}
					}
				}
				JOINT RightShoulder
				{
					OFFSET 0 0 0
					CHANNELS 3 Zrotation Yrotation Xrotation
					JOINT RightArm
					{
						OFFSET -2.95373 1.39649 -0.27346
						CHANNELS 3 Zrotation Yrotation Xrotation
						JOINT RightForeArm
						{
							OFFSET -6.10670 -0.00000 -0.00000
							CHANNELS 3 Zrotation Yrotation Xrotation
							JOINT RightHand
							{
								OFFSET -3.63052 -0.00000 0.00000
								CHANNELS 3 Zrotation Yrotation Xrotation
								JOINT RightFingerBase
								{
									OFFSET 0 0 0
									CHANNELS 3 Zrotation Yrotation Xrotation
									JOINT RightHandIndex1
									{
										OFFSET -0.58385 -0.00000 0.00000
										CHANNELS 3 Zrotation Yrotation Xrotation
										End Site
										{
											OFFSET -0.47071 -0.00000 0.00000
										}
									}
								}
								JOINT RThumb
								{
									OFFSET 0 0 0
									CHANNELS 3 Zrotation Yrotation Xrotation
									End Site
									{
										OFFSET -0.47790 -0.00000 0.47790
									}
								}
							}
						}
					}
				}
			}
		}
	}
}
MOTION
Frames: 7
Frame Time: 0.0333333
7.6355 18.7436 8.0529 0 0 0 0 0 0 -21 0 0 0 0 0 0 0 0 0 0 0 0 0 0 21 0 0 0 0 0 0 0 0 0 0 0 0 0 0 0 0 0 0 0 0 0 0 -16 0 0 21 0 0 11 0 0 0 -8 0 0 0 0 0 0 0 0 0 0 0 0 0 0 0 0 0 0 0 0 8 0 0 0 0 0 0 0 0 0 0 0 0 0 0 0 0 0
-0.0412 33.0025 -2.8310 182.1470 -19.7182 -171.0780 0.0000 0.0000 0.0000 -23.7948 15.0879 -49.4649 10.9681 17.9194 62.6778 -0.1874 -14.4112 -7.7819 0.0794 1.8179 5.0026 0.0000 0.0000 0.0000 21.8759 23.4243 -6.0690 -3.0526 -10.7798 31.5408 0.0073 -6.3697 4.2687 -0.0081 0.5824 -1.6003 -6.4425 -3.7597 15.7110 -1.5733 -6.4501 1.2112 3.3042 -3.0552 -6.9722 -13.3395 -6.8224 -22.3734 14.5681 -8.8133 18.4518 6.0761 -3.4478 10.9499 0.0000 0.0000 0.0000 -74.9292 -16.0584 63.5975 89.3732 -59.9985 -59.4572 -0.0000 0.0000 -15.6366 40.1278 25.2786 19.7958 -7.1250 0.0000 -0.0000 12.9368 61.2178 5.1586 0.0000 0.0000 0.0000 73.6802 2.8998 34.9796 -55.3974 54.9532 -30.5411 0.0000 -0.0000 -4.4366 -54.8329 8.0235 -11.2056 7.1250 -0.0000 -0.0000 -19.2047 -16.6622 -13.6898
0.0331 32.7689 -2.7382 180.6870 -20.0506 -170.1790 0.0000 0.0000 0.0000 -25.0782 14.6602 -51.8467 11.8684 18.3345 65.5711 -0.2978 -15.3396 -7.1614 0.0861 1.8927 5.2092 0.0000 0.0000 0.0000 20.2652 22.8623 -7.3376 -2.8624 -10.4688 30.5087 0.1309 -8.5313 2.8993 -0.0003 -0.1038 0.2851 -7.6274 -3.6480 16.9720 -1.8928 -6.7042 1.2698 3.7810 -3.1384 -7.4938 -7.2572 -5.3734 -19.2660 7.1448 -6.5749 12.5425 2.7294 -2.8492 7.4884 -0.0000 0.0000 0.0000 -74.1050 -17.3027 63.8431 95.4226 -59.8886 -64.6944 -0.0000 0.0000 -15.7464 40.6459 26.5689 21.0058 -7.1250 0.0000 -0.0000 13.6494 62.8619 5.9788 -0.0000 0.0000 0.0000 73.8264 2.0963 34.7965 -58.3937 55.8665 -33.0080 0.0000 -0.0000 -4.9299 -54.7810 7.4449 -10.4010 7.1250 -0.0000 -0.0000 -19.3440 -17.5936 -13.3798
0.1147 32.5465 -2.6491 180.0220 -21.0319 -169.5280 0.0000 0.0000 0.0000 -25.4120 13.8117 -54.3410 12.8920 18.7428 68.7898 -0.2674 -14.8894 -7.1326 0.0005 0.1425 0.3915 0.0000 0.0000 0.0000 19.6720 22.3004 -8.2075 -2.6266 -10.0645 29.1858 0.2690 -10.6187 1.8635 -0.0001 0.0706 -0.1940 -7.9324 -3.7887 17.9600 -2.0311 -7.0822 1.5214 3.9615 -3.3210 -7.7067 -7.9775 -5.0651 -12.7718 9.6670 -6.2993 1.2679 3.8203 -2.9325 3.0040 0.0000 -0.0000 0.0000 -73.3892 -18.6099 63.7550 101.9400 -59.4544 -70.3214 -0.0000 0.0000 -15.3910 41.4015 27.9226 22.4340 -7.1250 0.0000 -0.0000 14.7589 64.6456 7.0905 0.0000 -0.0000 0.0000 74.3105 1.6296 35.0611 -60.7714 56.5120 -34.9837 0.0000 -0.0000 -6.6240 -55.7480 7.4607 -10.7961 7.1250 -0.0000 -0.0000 -19.9417 -17.3013 -13.9870
0.1988 32.3036 -2.5549 179.6090 -22.0187 -168.7870 0.0000 0.0000 0.0000 -25.3742 12.7301 -57.0944 14.0166 19.1191 72.2551 -0.3044 -15.0053 -6.7259 0.0012 0.2230 0.6126 0.0000 0.0000 0.0000 19.2999 22.7267 -9.0746 -2.4308 -9.7109 28.0456 0.3811 -12.1546 1.3600 -0.0065 0.5223 -1.4352 -7.8201 -3.8525 18.6643 -2.0719 -7.2276 1.7246 3.9471 -3.3987 -7.8738 -9.4590 -6.8806 -14.9526 11.2769 -8.5488 2.4620 4.2954 -3.9316 4.0526 0.0000 0.0000 0.0000 -72.9686 -20.3610 64.0136 107.3758 -58.8279 -74.9886 -0.0000 0.0000 -15.2226 42.1749 29.5035 24.0444 -7.1250 0.0000 -0.0000 16.0015 66.6897 8.4545 0.0000 0.0000 0.0000 75.1855 1.2150 34.2068 -63.1301 57.0879 -36.9575 0.0000 -0.0000 -7.5398 -57.2463 6.3388 -9.7384 7.1250 -0.0000 -0.0000 -21.2293 -18.7295 -14.3013
0.2934 32.0625 -2.4583 178.7510 -21.2812 -168.2260 0.0000 0.0000 0.0000 -26.0858 13.2323 -59.5457 14.9681 19.3818 75.1406 -0.5480 -16.9362 -5.4252 0.1615 2.5890 7.1365 0.0000 0.0000 0.0000 18.1876 23.5955 -9.7442 -2.2487 -9.3660 26.9470 0.3631 -12.2832 2.1072 -0.0107 0.6692 -1.8390 -8.8056 -3.2772 19.3350 -2.2396 -6.8061 1.9634 4.2668 -3.1907 -7.9394 -9.7553 -6.9117 -15.1682 11.4254 -8.5254 2.1385 4.3893 -3.9235 4.0051 0.0000 0.0000 0.0000 -72.7834 -21.9284 63.7202 112.4877 -58.0002 -79.3441 -0.0000 0.0000 -15.3798 42.1070 31.7660 25.4452 -7.1250 0.0000 -0.0000 15.9192 69.2228 9.3214 0.0000 0.0000 0.0000 76.1713 1.1903 32.7394 -67.5959 58.0157 -40.7267 0.0000 -0.0000 -7.2745 -58.3194 5.2333 -8.4072 7.1250 -0.0000 -0.0000 -22.2796 -20.3292 -14.2549
0.3910 31.8161 -2.3917 178.4330 -21.2772 -167.8450 0.0000 0.0000 0.0000 -25.9553 13.2687 -61.8436 15.9048 19.5931 77.9480 -0.5926 -17.5422 -5.5669 0.0220 0.9578 2.6326 0.0000 0.0000 0.0000 17.9995 24.0319 -9.9834 -2.0135 -8.8942 25.4650 0.5158 -13.9396 1.2355 -0.0037 -0.3935 1.0811 -8.9984 -3.1525 19.5800 -2.3808 -6.7429 2.0969 4.2232 -3.1711 -7.9322 -9.5374 -6.7923 -14.9733 11.2432 -8.3965 2.1300 4.3157 -3.8676 3.9399 -0.0000 0.0000 0.0000 -72.2684 -23.5044 63.1780 116.8684 -57.0883 -83.0412 -0.0000 0.0000 -15.9773 42.4034 34.3322 27.2509 -7.1250 0.0000 -0.0000 16.3981 72.1635 10.6700 -0.0000 0.0000 0.0000 77.3824 0.7261 30.8555 -74.5123 59.0740 -46.6290 0.0000 -0.0000 -6.3520 -58.0457 5.9606 -9.4520 7.1250 -0.0000 -0.0000 -21.8525 -19.1520 -14.5661
